<svg width="43" height="36" viewBox="0 0 43 36" fill="none" xmlns="http://www.w3.org/2000/svg">
<path d="M29.7842 20.494C33.5074 20.8672 37.0943 21.9553 40.2734 23.7831L40.4912 23.9188C41.5528 24.6302 42.2002 25.8601 42.2002 27.1864V34.2499C42.2001 35.0512 41.5513 35.7001 40.75 35.7001H34.2998V32.7997H39.2998V27.1864C39.2997 26.8441 39.1553 26.5452 38.9307 26.3671L38.8301 26.2977C37.1682 25.3428 35.3729 24.6185 33.5039 24.0995L33.4277 24.078L33.3867 24.0106C32.9391 23.2791 32.3523 22.6388 31.6357 22.1581L31.3203 21.9618C30.5625 21.5262 29.7565 21.1761 28.9414 20.8114L29.0381 20.4296L29.7842 20.494Z" fill="#8D448B" stroke="#8D448B" stroke-width="0.4"/>
<path d="M3.10059 23.5726C10.9905 19.225 21.4672 19.2955 29.2734 23.7836L29.4912 23.9193C30.5536 24.6325 31.2002 25.8616 31.2002 27.1859V34.2494C31.2002 35.0508 30.5514 35.6995 29.75 35.6996H2.25C1.44861 35.6996 0.799805 35.0508 0.799805 34.2494V27.1869C0.799805 25.7731 1.53525 24.4689 2.72656 23.7836L3.10059 23.5726ZM27.8291 26.2982C20.9971 22.3711 11.8186 22.2485 4.83984 25.9301L4.1709 26.2982C3.88842 26.4605 3.7002 26.7958 3.7002 27.1869V32.8002H28.2998V27.1859C28.2998 26.8448 28.1561 26.5448 27.9307 26.3666L27.8291 26.2982Z" fill="#8D448B" stroke="#8D448B" stroke-width="0.4"/>
<path d="M27.001 0.299683C31.9355 0.299863 35.9502 4.31528 35.9502 9.24988C35.9502 14.1845 31.9355 18.1999 27.001 18.2001C26.1156 18.2001 25.255 18.031 24.4277 17.7762L24.0898 17.6727L24.3525 17.4364C25.0555 16.8047 25.6932 16.1142 26.2119 15.3309L26.2783 15.2294L26.3994 15.2421C26.6268 15.2659 26.805 15.2997 27.001 15.2997C30.3364 15.2995 33.0508 12.5853 33.0508 9.24988C33.0507 5.91447 30.3364 3.20025 27.001 3.20007C26.8048 3.20007 26.6257 3.23391 26.3984 3.25769L26.2783 3.27039L26.2109 3.16882C25.6923 2.38577 25.0554 1.69515 24.3525 1.06335L24.0898 0.827026L24.4277 0.722534L24.7393 0.631714C25.4702 0.428825 26.2261 0.299683 27.001 0.299683Z" fill="#8D448B" stroke="#8D448B" stroke-width="0.4"/>
<path d="M16 0.299683C20.9347 0.299688 24.9502 4.31517 24.9502 9.24988C24.9502 14.1846 20.9346 18.2001 16 18.2001C11.0654 18.2001 7.0498 14.1846 7.0498 9.24988C7.04981 4.31516 11.0653 0.299683 16 0.299683ZM16 3.20007C12.6645 3.20007 9.9502 5.91433 9.9502 9.24988C9.9502 12.5854 12.6645 15.2997 16 15.2997C19.3355 15.2997 22.0498 12.5854 22.0498 9.24988C22.0498 5.91433 19.3356 3.20008 16 3.20007Z" fill="#8D448B" stroke="#8D448B" stroke-width="0.4"/>
</svg>
